<?xml version="1.0" standalone="no"?>
<!DOCTYPE svg PUBLIC "-//W3C//DTD SVG 20010904//EN"
 "http://www.w3.org/TR/2001/REC-SVG-20010904/DTD/svg10.dtd">
<svg version="1.0" xmlns="http://www.w3.org/2000/svg"
 width="700.000000pt" height="700.000000pt" viewBox="0 0 700.000000 700.000000"
 preserveAspectRatio="xMidYMid meet">
<metadata>
Created by potrace 1.11, written by Peter Selinger 2001-2013
</metadata>
<g transform="translate(0.000000,700.000000) scale(0.100000,-0.100000)"
fill="#000000" stroke="none">
<path d="M180 3750 l0 -1650 2080 0 2080 0 0 1650 0 1650 -2080 0 -2080 0 0
-1650z"/>
<path d="M5119 3305 c-1 -8 -3 -19 -4 -25 -1 -5 -3 -153 -4 -327 l-2 -318 -20
25 c-11 14 -35 43 -53 65 -94 114 -331 401 -336 405 -3 3 -39 45 -80 94 l-75
89 -7 -39 c-9 -53 -5 -720 5 -730 4 -4 10 -4 15 0 4 4 8 134 10 289 1 155 3
304 5 332 l2 49 55 -69 c30 -39 57 -72 60 -75 11 -9 354 -424 395 -477 22 -29
43 -52 46 -53 4 0 9 19 11 43 7 62 7 667 1 705 -5 32 -22 44 -24 17z"/>
<path d="M5557 3313 c-9 -14 -3 -760 6 -769 4 -4 10 -4 15 0 4 4 8 134 10 289
1 155 3 304 5 332 l2 49 115 -139 c63 -77 122 -149 132 -160 9 -11 53 -65 98
-120 45 -55 92 -111 104 -125 11 -14 41 -49 65 -78 28 -34 47 -49 51 -42 10
16 7 756 -3 766 -21 21 -26 -42 -27 -340 0 -176 -2 -322 -4 -324 -2 -2 -48 50
-102 115 -54 65 -122 147 -152 183 -30 36 -61 74 -71 85 -9 11 -48 58 -86 105
-39 47 -83 99 -98 116 -15 18 -34 40 -41 49 -7 10 -16 14 -19 8z"/>
<path d="M6587 3288 c-8 -50 -3 -735 6 -744 4 -4 10 -4 15 0 8 9 13 693 5 744
-3 17 -9 32 -13 32 -4 0 -10 -15 -13 -32z"/>
</g>
</svg>
